<svg xmlns="http://www.w3.org/2000/svg"><path d="M 0.091875 0.7290625000000001 L 0.27984375 0.7290625000000001 L 0.27984375 0.45125 L 0.5571875000000001 0.45125 L 0.5571875000000001 0.7290625000000001 L 0.74515625 0.7290625000000001 L 0.74515625 0.0 L 0.5571875000000001 0.0 L 0.5571875000000001 0.3090625 L 0.27984375 0.3090625 L 0.27984375 0.0 L 0.091875 0.0 L 0.091875 0.7290625000000001 Z M 1.3711328125 0.1328125 L 1.0772265625 0.1328125 L 1.0308203125 0.0 L 0.8417578125 0.0 L 1.1117578125 0.7290625000000001 L 1.3359765625 0.7290625000000001 L 1.6059765625 0.0 L 1.4170703125 0.0 L 1.3711328125 0.1328125 Z M 1.1241015625 0.268125 L 1.3237890625 0.268125 L 1.2241015625 0.558125 L 1.1241015625 0.268125 Z M 1.96974609375 0.40578125 Q 2.02880859375 0.40578125 2.0544335937500002 0.42765625 Q 2.08005859375 0.4496875 2.08005859375 0.5 Q 2.08005859375 0.54984375 2.0544335937500002 0.57125 Q 2.02880859375 0.5928125 1.96974609375 0.5928125 L 1.89068359375 0.5928125 L 1.89068359375 0.40578125 L 1.96974609375 0.40578125 Z M 1.89068359375 0.2759375 L 1.89068359375 0.0 L 1.70271484375 0.0 L 1.70271484375 0.7290625000000001 L 1.98974609375 0.7290625000000001 Q 2.13380859375 0.7290625000000001 2.20083984375 0.680625 Q 2.26802734375 0.63234375 2.26802734375 0.5278125 Q 2.26802734375 0.455625 2.23302734375 0.40921875 Q 2.19818359375 0.3628125 2.12787109375 0.34078125 Q 2.16646484375 0.33203125 2.19693359375 0.3009375 Q 2.22755859375 0.27 2.25880859375 0.20703125 L 2.36083984375 0.0 L 2.16068359375 0.0 L 2.07177734375 0.18109375 Q 2.04490234375 0.23578125 2.01724609375 0.25578125 Q 1.98974609375 0.2759375 1.94380859375 0.2759375 L 1.89068359375 0.2759375 Z M 2.660703125 0.586875 L 2.660703125 0.14203125 L 2.728046875 0.14203125 Q 2.843203125 0.14203125 2.903984375 0.19921875 Q 2.964921875 0.25640625 2.964921875 0.3653125 Q 2.964921875 0.47359375000000004 2.904296875 0.53015625 Q 2.843828125 0.586875 2.728046875 0.586875 L 2.660703125 0.586875 Z M 2.472734375 0.7290625000000001 L 2.670859375 0.7290625000000001 Q 2.836953125 0.7290625000000001 2.9182031250000002 0.7053125 Q 2.999453125 0.68171875 3.057578125 0.625 Q 3.108828125 0.575625 3.133671875 0.51109375 Q 3.158671875 0.44671875 3.158671875 0.3653125 Q 3.158671875 0.28265625 3.133671875 0.21796875000000002 Q 3.108828125 0.15328125 3.057578125 0.1040625 Q 2.998984375 0.047343750000000004 2.916953125 0.02359375 Q 2.834921875 0.0 2.670859375 0.0 L 2.472734375 0.0 L 2.472734375 0.7290625000000001 Z M 3.3028125 0.7290625000000001 L 3.49078125 0.7290625000000001 L 3.49078125 0.0 L 3.3028125 0.0 L 3.3028125 0.7290625000000001 Z M 3.6748828125 0.7290625000000001 L 3.8628515625 0.7290625000000001 L 3.8628515625 0.46296875 L 4.1337890625 0.7290625000000001 L 4.3520703125 0.7290625000000001 L 4.0009765625 0.38375000000000004 L 4.3881640625000005 0.0 L 4.1528515625 0.0 L 3.8628515625 0.2871875 L 3.8628515625 0.0 L 3.6748828125 0.0 L 3.6748828125 0.7290625000000001 Z M 4.7108984375 0.7290625000000001 L 4.8999609375 0.7290625000000001 L 5.0932421875000005 0.1909375 L 5.2862109375 0.7290625000000001 L 5.4751171875 0.7290625000000001 L 5.2051171875 0.0 L 4.9808984375000005 0.0 L 4.7108984375 0.7290625000000001 Z M 5.57185546875 0.7290625000000001 L 6.0790429687500005 0.7290625000000001 L 6.0790429687500005 0.586875 L 5.75982421875 0.586875 L 5.75982421875 0.45125 L 6.06013671875 0.45125 L 6.06013671875 0.3090625 L 5.75982421875 0.3090625 L 5.75982421875 0.14203125 L 6.0898242187500005 0.14203125 L 6.0898242187500005 0.0 L 5.57185546875 0.0 L 5.57185546875 0.7290625000000001 Z M 6.5219921875 0.40578125 Q 6.5810546875 0.40578125 6.6066796875 0.42765625 Q 6.6323046875000005 0.4496875 6.6323046875000005 0.5 Q 6.6323046875000005 0.54984375 6.6066796875 0.57125 Q 6.5810546875 0.5928125 6.5219921875 0.5928125 L 6.4429296875 0.5928125 L 6.4429296875 0.40578125 L 6.5219921875 0.40578125 Z M 6.4429296875 0.2759375 L 6.4429296875 0.0 L 6.2549609375 0.0 L 6.2549609375 0.7290625000000001 L 6.5419921875 0.7290625000000001 Q 6.6860546875 0.7290625000000001 6.7530859375 0.680625 Q 6.8202734375 0.63234375 6.8202734375 0.5278125 Q 6.8202734375 0.455625 6.7852734375 0.40921875 Q 6.7504296875000005 0.3628125 6.6801171875000005 0.34078125 Q 6.7187109375 0.33203125 6.7491796875 0.3009375 Q 6.7798046875 0.27 6.8110546875 0.20703125 L 6.9130859375 0.0 L 6.7129296875 0.0 L 6.6240234375 0.18109375 Q 6.5971484375000005 0.23578125 6.5694921875 0.25578125 Q 6.5419921875 0.2759375 6.4960546875 0.2759375 L 6.4429296875 0.2759375 Z M 7.02498046875 0.7290625000000001 L 7.26419921875 0.7290625000000001 L 7.43013671875 0.33890625 L 7.59716796875 0.7290625000000001 L 7.8359179687500005 0.7290625000000001 L 7.8359179687500005 0.0 L 7.65826171875 0.0 L 7.65826171875 0.53328125 L 7.49029296875 0.14015625 L 7.3710742187500005 0.14015625 L 7.2031054687500005 0.53328125 L 7.2031054687500005 0.0 L 7.02498046875 0.0 L 7.02498046875 0.7290625000000001 Z M 8.46244140625 0.1328125 L 8.16853515625 0.1328125 L 8.12212890625 0.0 L 7.93306640625 0.0 L 8.20306640625 0.7290625000000001 L 8.42728515625 0.7290625000000001 L 8.69728515625 0.0 L 8.50837890625 0.0 L 8.46244140625 0.1328125 Z M 8.21541015625 0.268125 L 8.41509765625 0.268125 L 8.31541015625 0.558125 L 8.21541015625 0.268125 Z " /></svg>