<svg width="69" height="12" viewBox="0 0 69 12" fill="none" xmlns="http://www.w3.org/2000/svg">
<path fill="white" d="M0 0.49858H2.27557L4.67898 6.36222H4.78125L7.18466 0.49858H9.46023V9.22585H7.67045V3.54545H7.59801L5.33949 9.18324H4.12074L1.86222 3.52415H1.78977V9.22585H0V0.49858Z M12.0671 11.6804C11.837 11.6804 11.6211 11.6619 11.4194 11.625C11.2205 11.5909 11.0558 11.5469 10.9251 11.4929L11.3342 10.1378C11.5472 10.2031 11.739 10.2386 11.9094 10.2443C12.0827 10.25 12.2319 10.2102 12.3569 10.125C12.4847 10.0398 12.5884 9.89489 12.668 9.69034L12.7745 9.41335L10.4265 2.6804H12.3356L13.6907 7.48722H13.7589L15.1268 2.6804H17.0487L14.5046 9.93324C14.3825 10.2855 14.2163 10.5923 14.006 10.8537C13.7987 11.1179 13.5359 11.321 13.2177 11.4631C12.8995 11.608 12.516 11.6804 12.0671 11.6804Z M20.7891 9.22585V0.49858H24.2322C24.8942 0.49858 25.4581 0.625 25.924 0.877841C26.3899 1.12784 26.745 1.47585 26.9893 1.92188C27.2365 2.36506 27.3601 2.87642 27.3601 3.45597C27.3601 4.03551 27.2351 4.54688 26.9851 4.99006C26.7351 5.43324 26.3729 5.77841 25.8984 6.02557C25.4268 6.27273 24.8558 6.39631 24.1854 6.39631H21.9908V4.91761H23.8871C24.2422 4.91761 24.5348 4.85653 24.7649 4.73438C24.9979 4.60938 25.1712 4.4375 25.2848 4.21875C25.4013 3.99716 25.4595 3.7429 25.4595 3.45597C25.4595 3.16619 25.4013 2.91335 25.2848 2.69744C25.1712 2.47869 24.9979 2.30966 24.7649 2.19034C24.532 2.06818 24.2365 2.0071 23.8786 2.0071H22.6342V9.22585H20.7891Z M28.5245 9.22585V2.6804H30.2844V3.82244H30.3526C30.4719 3.41619 30.6722 3.10938 30.9535 2.90199C31.2347 2.69176 31.5586 2.58665 31.9251 2.58665C32.016 2.58665 32.114 2.59233 32.2191 2.60369C32.3242 2.61506 32.4165 2.63068 32.4961 2.65057V4.26136C32.4109 4.2358 32.293 4.21307 32.1424 4.19318C31.9918 4.1733 31.854 4.16335 31.729 4.16335C31.462 4.16335 31.2234 4.22159 31.0131 4.33807C30.8058 4.4517 30.641 4.6108 30.5188 4.81534C30.3995 5.01989 30.3398 5.25568 30.3398 5.52273V9.22585H28.5245Z M36.0874 9.35369C35.4254 9.35369 34.853 9.21307 34.37 8.93182C33.8899 8.64773 33.5192 8.25284 33.2578 7.74716C32.9964 7.23864 32.8658 6.64915 32.8658 5.97869C32.8658 5.30256 32.9964 4.71165 33.2578 4.20597C33.5192 3.69744 33.8899 3.30256 34.37 3.02131C34.853 2.73722 35.4254 2.59517 36.0874 2.59517C36.7493 2.59517 37.3203 2.73722 37.8004 3.02131C38.2834 3.30256 38.6555 3.69744 38.9169 4.20597C39.1783 4.71165 39.3089 5.30256 39.3089 5.97869C39.3089 6.64915 39.1783 7.23864 38.9169 7.74716C38.6555 8.25284 38.2834 8.64773 37.8004 8.93182C37.3203 9.21307 36.7493 9.35369 36.0874 9.35369ZM36.0959 7.94744C36.397 7.94744 36.6484 7.86222 36.8501 7.69176C37.0518 7.51847 37.2038 7.28267 37.3061 6.98438C37.4112 6.68608 37.4638 6.34659 37.4638 5.96591C37.4638 5.58523 37.4112 5.24574 37.3061 4.94744C37.2038 4.64915 37.0518 4.41335 36.8501 4.24006C36.6484 4.06676 36.397 3.98011 36.0959 3.98011C35.7919 3.98011 35.5362 4.06676 35.3288 4.24006C35.1243 4.41335 34.9695 4.64915 34.8643 4.94744C34.7621 5.24574 34.7109 5.58523 34.7109 5.96591C34.7109 6.34659 34.7621 6.68608 34.8643 6.98438C34.9695 7.28267 35.1243 7.51847 35.3288 7.69176C35.5362 7.86222 35.7919 7.94744 36.0959 7.94744Z M40.4893 2.6804H42.3047V9.54972C42.3047 10.0554 42.2053 10.4645 42.0064 10.777C41.8075 11.0895 41.522 11.3182 41.1499 11.4631C40.7805 11.608 40.3388 11.6804 39.8246 11.6804C39.7621 11.6804 39.7024 11.679 39.6456 11.6761C39.5859 11.6761 39.5234 11.6747 39.4581 11.6719V10.2528C39.5064 10.2557 39.549 10.2571 39.5859 10.2571C39.62 10.2599 39.657 10.2614 39.6967 10.2614C39.9893 10.2614 40.1939 10.1989 40.3104 10.0739C40.4297 9.9517 40.4893 9.76705 40.4893 9.51989V2.6804ZM41.3928 1.83665C41.1257 1.83665 40.8956 1.74716 40.7024 1.56818C40.5092 1.38636 40.4126 1.16903 40.4126 0.916193C40.4126 0.666193 40.5092 0.451705 40.7024 0.272728C40.8956 0.0909092 41.1257 0 41.3928 0C41.6655 0 41.897 0.0909092 42.0874 0.272728C42.2805 0.451705 42.3771 0.666193 42.3771 0.916193C42.3771 1.16903 42.2805 1.38636 42.0874 1.56818C41.897 1.74716 41.6655 1.83665 41.3928 1.83665Z M46.7418 9.35369C46.0685 9.35369 45.489 9.21733 45.0032 8.9446C44.5202 8.66903 44.1481 8.27983 43.8867 7.77699C43.6254 7.27131 43.4947 6.6733 43.4947 5.98295C43.4947 5.30966 43.6254 4.71875 43.8867 4.21023C44.1481 3.70171 44.516 3.3054 44.9904 3.02131C45.4677 2.73722 46.0273 2.59517 46.6694 2.59517C47.1012 2.59517 47.5032 2.66477 47.8754 2.80398C48.2504 2.94034 48.5771 3.14631 48.8555 3.42188C49.1367 3.69744 49.3555 4.04403 49.5117 4.46165C49.668 4.87642 49.7461 5.36222 49.7461 5.91903V6.41761H44.2191V5.29261H48.0373C48.0373 5.03125 47.9805 4.79972 47.8668 4.59801C47.7532 4.39631 47.5955 4.23864 47.3938 4.125C47.195 4.00852 46.9634 3.95028 46.6992 3.95028C46.4237 3.95028 46.1793 4.0142 45.9663 4.14205C45.756 4.26705 45.5913 4.43608 45.4719 4.64915C45.3526 4.85938 45.2915 5.09375 45.2887 5.35227V6.42188C45.2887 6.74574 45.3484 7.02557 45.4677 7.26136C45.5898 7.49716 45.7617 7.67898 45.9833 7.80682C46.2049 7.93466 46.4677 7.99858 46.7717 7.99858C46.9734 7.99858 47.158 7.97017 47.3256 7.91335C47.4933 7.85653 47.6367 7.77131 47.756 7.65767C47.8754 7.54403 47.9663 7.40483 48.0288 7.24006L49.7077 7.35085C49.6225 7.75426 49.4478 8.10653 49.1836 8.40767C48.9222 8.70597 48.5842 8.93892 48.1694 9.10653C47.7575 9.27131 47.2816 9.35369 46.7418 9.35369Z M53.8881 9.35369C53.2177 9.35369 52.641 9.21165 52.158 8.92756C51.6779 8.64063 51.3086 8.2429 51.0501 7.73438C50.7944 7.22585 50.6665 6.64063 50.6665 5.97869C50.6665 5.30824 50.7958 4.72017 51.0543 4.21449C51.3157 3.70597 51.6864 3.30966 52.1665 3.02557C52.6467 2.73864 53.2177 2.59517 53.8796 2.59517C54.4506 2.59517 54.9506 2.69886 55.3796 2.90625C55.8086 3.11364 56.1481 3.40483 56.3981 3.77983C56.6481 4.15483 56.7859 4.59517 56.8114 5.10085H55.0984C55.0501 4.77415 54.9222 4.51136 54.7148 4.3125C54.5103 4.1108 54.2418 4.00994 53.9094 4.00994C53.6282 4.00994 53.3825 4.08665 53.1722 4.24006C52.9648 4.39063 52.8029 4.6108 52.6864 4.90057C52.57 5.19034 52.5117 5.54119 52.5117 5.95313C52.5117 6.37074 52.5685 6.72585 52.6822 7.01847C52.7987 7.31108 52.962 7.53409 53.1722 7.6875C53.3825 7.84091 53.6282 7.91761 53.9094 7.91761C54.1168 7.91761 54.3029 7.875 54.4677 7.78977C54.6353 7.70455 54.7731 7.58097 54.881 7.41903C54.9918 7.25426 55.0643 7.05682 55.0984 6.8267H56.8114C56.783 7.3267 56.6467 7.76705 56.4023 8.14773C56.1609 8.52557 55.8271 8.82102 55.4009 9.03409C54.9748 9.24716 54.4705 9.35369 53.8881 9.35369Z M61.4553 2.6804V4.04403H57.5135V2.6804H61.4553ZM58.4084 1.11222H60.2237V7.21449C60.2237 7.3821 60.2493 7.51278 60.3004 7.60653C60.3516 7.69744 60.4226 7.76136 60.5135 7.7983C60.6072 7.83523 60.7152 7.85369 60.8374 7.85369C60.9226 7.85369 61.0078 7.84659 61.093 7.83239C61.1783 7.81534 61.2436 7.80256 61.2891 7.79403L61.5746 9.14489C61.4837 9.1733 61.3558 9.20597 61.1911 9.2429C61.0263 9.28267 60.826 9.30682 60.5902 9.31534C60.1527 9.33239 59.7692 9.27415 59.4396 9.14062C59.1129 9.0071 58.8587 8.79972 58.6768 8.51847C58.495 8.23722 58.4055 7.8821 58.4084 7.45313V1.11222Z M68.0018 4.54688L66.3398 4.64915C66.3114 4.5071 66.2504 4.37926 66.1566 4.26563C66.0629 4.14915 65.9393 4.05682 65.7859 3.98864C65.6353 3.91761 65.4549 3.8821 65.2447 3.8821C64.9634 3.8821 64.7262 3.94176 64.533 4.06108C64.3398 4.17756 64.2433 4.33381 64.2433 4.52983C64.2433 4.68608 64.3058 4.81818 64.4308 4.92614C64.5558 5.03409 64.7702 5.12074 65.0742 5.18608L66.2589 5.42472C66.8952 5.5554 67.3697 5.76563 67.6822 6.0554C67.9947 6.34517 68.1509 6.72585 68.1509 7.19744C68.1509 7.62642 68.0245 8.00284 67.7717 8.3267C67.5217 8.65057 67.1779 8.90341 66.7404 9.08523C66.3058 9.26421 65.8043 9.35369 65.2362 9.35369C64.3697 9.35369 63.6793 9.1733 63.1651 8.8125C62.6538 8.44886 62.354 7.95455 62.266 7.32955L64.0515 7.2358C64.1055 7.5 64.2361 7.7017 64.4435 7.84091C64.6509 7.97727 64.9165 8.04545 65.2404 8.04545C65.5586 8.04545 65.8143 7.98438 66.0075 7.86222C66.2035 7.73722 66.3029 7.57671 66.3058 7.38068C66.3029 7.21591 66.2333 7.08097 66.0969 6.97585C65.9606 6.8679 65.7504 6.78551 65.4663 6.72869L64.3327 6.50284C63.6935 6.375 63.2177 6.15341 62.9052 5.83807C62.5955 5.52273 62.4407 5.12074 62.4407 4.6321C62.4407 4.21165 62.5543 3.84943 62.7816 3.54545C63.0117 3.24148 63.3342 3.0071 63.7489 2.84233C64.1665 2.67756 64.6552 2.59517 65.2148 2.59517C66.0415 2.59517 66.6921 2.76989 67.1665 3.11932C67.6438 3.46875 67.9222 3.9446 68.0018 4.54688Z"/>
</svg>
