<svg width="37" height="9" viewBox="0 0 37 9" fill="none" xmlns="http://www.w3.org/2000/svg">
<path fill="white" d="M5.39063 0.119318H7.2358V5.78693C7.2358 6.4233 7.08381 6.98011 6.77983 7.45739C6.47869 7.93466 6.05682 8.30682 5.5142 8.57386C4.97159 8.83807 4.33949 8.97017 3.6179 8.97017C2.89347 8.97017 2.25994 8.83807 1.71733 8.57386C1.17472 8.30682 0.752841 7.93466 0.451705 7.45739C0.150568 6.98011 0 6.4233 0 5.78693V0.119318H1.84517V5.62926C1.84517 5.96165 1.91761 6.2571 2.0625 6.51562C2.21023 6.77415 2.41761 6.97727 2.68466 7.125C2.9517 7.27273 3.26278 7.34659 3.6179 7.34659C3.97585 7.34659 4.28693 7.27273 4.55114 7.125C4.81818 6.97727 5.02415 6.77415 5.16903 6.51562C5.31676 6.2571 5.39063 5.96165 5.39063 5.62926V0.119318Z M16.0536 0.119318V8.84659H14.4599L10.663 3.35369H10.5991V8.84659H8.75391V0.119318H10.3732L14.1403 5.60795H14.217V0.119318H16.0536Z M22.3125 2.62926C22.2784 2.28551 22.1321 2.01847 21.8736 1.82812C21.6151 1.63778 21.2642 1.54261 20.821 1.54261C20.5199 1.54261 20.2656 1.58523 20.0582 1.67045C19.8509 1.75284 19.6918 1.8679 19.581 2.01562C19.473 2.16335 19.419 2.33097 19.419 2.51847C19.4134 2.67472 19.446 2.81108 19.517 2.92756C19.5909 3.04403 19.6918 3.14489 19.8196 3.23011C19.9474 3.3125 20.0952 3.38494 20.2628 3.44744C20.4304 3.5071 20.6094 3.55824 20.7997 3.60085L21.5838 3.78835C21.9645 3.87358 22.3139 3.98722 22.6321 4.12926C22.9503 4.27131 23.2259 4.44602 23.4588 4.65341C23.6918 4.8608 23.8722 5.10511 24 5.38636C24.1307 5.66761 24.1974 5.99006 24.2003 6.35369C24.1974 6.88778 24.0611 7.35085 23.7912 7.7429C23.5241 8.1321 23.1378 8.43466 22.6321 8.65057C22.1293 8.86364 21.5227 8.97017 20.8125 8.97017C20.108 8.97017 19.4943 8.86222 18.9716 8.64631C18.4517 8.4304 18.0455 8.1108 17.7528 7.6875C17.4631 7.26136 17.3111 6.73438 17.2969 6.10653H19.0824C19.1023 6.39915 19.1861 6.64347 19.3338 6.83949C19.4844 7.03267 19.6847 7.17898 19.9347 7.27841C20.1875 7.375 20.473 7.4233 20.7912 7.4233C21.1037 7.4233 21.375 7.37784 21.6051 7.28693C21.8381 7.19602 22.0185 7.0696 22.1463 6.90767C22.2741 6.74574 22.3381 6.55966 22.3381 6.34943C22.3381 6.15341 22.2798 5.98864 22.1634 5.85511C22.0497 5.72159 21.8821 5.60795 21.6605 5.5142C21.4418 5.42045 21.1733 5.33523 20.8551 5.25852L19.9048 5.01989C19.169 4.84091 18.5881 4.56108 18.1619 4.1804C17.7358 3.79972 17.5241 3.28693 17.527 2.64205C17.5241 2.11364 17.6648 1.65199 17.9489 1.2571C18.2358 0.862216 18.6293 0.553977 19.1293 0.332386C19.6293 0.110795 20.1974 0 20.8338 0C21.4815 0 22.0469 0.110795 22.5298 0.332386C23.0156 0.553977 23.3935 0.862216 23.6634 1.2571C23.9332 1.65199 24.0724 2.10938 24.081 2.62926H22.3125Z M27.4059 8.84659L24.9087 0.119318H26.9244L28.369 6.18324H28.4414L30.0352 0.119318H31.761L33.3505 6.19602H33.4272L34.8718 0.119318H36.8874L34.3903 8.84659H32.592L30.93 3.14062H30.8619L29.2042 8.84659H27.4059Z"/>
</svg>
