<svg width="35" height="9" viewBox="0 0 35 9" fill="none" xmlns="http://www.w3.org/2000/svg">
<path fill="white" d="M5.208 0.456001V0.120001H7.536V0.456001L6.876 0.54C6.748 0.556 6.672 0.592 6.648 0.648C6.624 0.696 6.612 0.856 6.612 1.128V5.508C6.612 6.468 6.408 7.192 6 7.68C5.6 8.16 4.984 8.4 4.152 8.4C3.184 8.4 2.404 8.136 1.812 7.608C1.22 7.08 0.924 6.32 0.924 5.328V1.128C0.924 0.856 0.912 0.696 0.888 0.648C0.864 0.592 0.788 0.556 0.66 0.54L0 0.456001V0.120001H3.288V0.456001L2.628 0.54C2.5 0.556 2.424 0.592 2.4 0.648C2.376 0.696 2.364 0.856 2.364 1.128V5.412C2.364 6.308 2.528 6.956 2.856 7.356C3.184 7.756 3.652 7.956 4.26 7.956C4.852 7.956 5.312 7.768 5.64 7.392C5.968 7.008 6.132 6.388 6.132 5.532V1.128C6.132 0.856 6.12 0.696 6.096 0.648C6.072 0.592 5.996 0.556 5.868 0.54L5.208 0.456001Z M13.4591 0.456001V0.120001H15.7871V0.456001L15.1271 0.54C14.9991 0.556 14.9231 0.592 14.8991 0.648C14.8751 0.696 14.8631 0.856 14.8631 1.128V8.28H14.2031L9.79912 1.164V7.272C9.79912 7.544 9.81113 7.708 9.83512 7.764C9.85913 7.812 9.93512 7.844 10.0631 7.86L10.7231 7.944V8.28H8.39513V7.944L9.05513 7.86C9.18313 7.844 9.25912 7.812 9.28312 7.764C9.30712 7.708 9.31913 7.544 9.31913 7.272V1.128C9.31913 0.856 9.30712 0.696 9.28312 0.648C9.25912 0.592 9.18313 0.556 9.05513 0.54L8.39513 0.456001V0.120001H10.8071L14.3831 5.868V1.128C14.3831 0.856 14.3711 0.696 14.3471 0.648C14.3231 0.592 14.2471 0.556 14.1191 0.54L13.4591 0.456001Z M19.4174 7.98C19.8974 7.98 20.2934 7.868 20.6054 7.644C20.9254 7.412 21.0854 7.052 21.0854 6.564C21.0854 6.204 20.9774 5.904 20.7614 5.664C20.5534 5.424 20.1774 5.224 19.6334 5.064L18.5174 4.728C17.9574 4.56 17.5254 4.272 17.2214 3.864C16.9254 3.448 16.7774 2.932 16.7774 2.316C16.7774 1.908 16.8694 1.528 17.0534 1.176C17.2454 0.824 17.5334 0.54 17.9174 0.324C18.3094 0.108 18.8014 0 19.3934 0C20.0414 0 20.5654 0.12 20.9654 0.36C21.3654 0.592 21.6454 0.896 21.8054 1.272C21.9654 1.648 22.0054 2.052 21.9254 2.484L20.5454 2.736C20.6734 1.992 20.6174 1.42 20.3774 1.02C20.1454 0.62 19.7654 0.42 19.2374 0.42C18.8294 0.42 18.5014 0.54 18.2534 0.780001C18.0134 1.02 17.8934 1.364 17.8934 1.812C17.8934 2.18 17.9974 2.504 18.2054 2.784C18.4214 3.064 18.7734 3.28 19.2614 3.432L20.3774 3.768C20.9854 3.944 21.4414 4.212 21.7454 4.572C22.0494 4.924 22.2014 5.416 22.2014 6.048C22.2014 6.496 22.0974 6.9 21.8894 7.26C21.6894 7.612 21.3814 7.892 20.9654 8.1C20.5574 8.3 20.0454 8.4 19.4294 8.4C18.9814 8.4 18.5574 8.336 18.1574 8.208C17.7574 8.072 17.4214 7.852 17.1494 7.548C16.8854 7.244 16.7174 6.832 16.6454 6.312L17.4494 6.024C17.4894 6.536 17.6014 6.936 17.7854 7.224C17.9774 7.504 18.2134 7.7 18.4934 7.812C18.7814 7.924 19.0894 7.98 19.4174 7.98Z M30.2745 8.28L28.3065 1.728L26.4465 8.28H25.4025L23.7345 1.128C23.6945 0.944 23.6625 0.816 23.6385 0.744C23.6145 0.664001 23.5785 0.612 23.5305 0.588C23.4905 0.564 23.4265 0.548 23.3385 0.54L22.6785 0.456001V0.120001H26.0025V0.456001L25.3425 0.54C25.2145 0.556 25.1465 0.588001 25.1385 0.636C25.1305 0.684 25.1545 0.848 25.2105 1.128L26.4585 6.72L28.2945 0.120001H29.2905L31.2465 6.6L32.5185 1.128C32.5825 0.848 32.6065 0.684 32.5905 0.636C32.5745 0.588001 32.5065 0.556 32.3865 0.54L31.7265 0.456001V0.120001H34.0545V0.456001L33.3945 0.54C33.3065 0.548 33.2425 0.564 33.2025 0.588C33.1625 0.612 33.1265 0.664001 33.0945 0.744C33.0705 0.816 33.0385 0.944 32.9985 1.128L31.3305 8.28H30.2745Z"/>
</svg>
